<svg width="673" height="799" fill="none" xmlns="http://www.w3.org/2000/svg"><path d="M284.5 359H438l234.5 440H.5l284-440Z" fill="url(#a)"/><path d="m395.675 251.325-.047 11.681 11.665.03.063-11.665-11.681-.046Zm-65.996-.262-11.682-.047-.029 11.665 11.664.063.047-11.681Zm54.577-65.781-.262 65.997 23.362.092.263-65.996-23.363-.093Zm11.465 54.362-65.996-.263-.093 23.363 65.996.262.093-23.362Zm-54.361 11.465.262-65.996-23.362-.093-.263 65.996 23.363.093Zm21.664-87.228a21.324 21.324 0 0 1 21.232 21.401l23.363.093a44.673 44.673 0 0 0-12.955-31.651 44.677 44.677 0 0 0-31.547-13.206l-.093 23.363Zm.093-23.363a44.66 44.66 0 0 0-44.857 44.502l23.362.093a21.33 21.33 0 0 1 21.402-21.232l.093-23.363Zm4.11 99.029-9.008-.036-.093 23.33 9.009.036.092-23.33Zm-99.48 121.93 188.98.751.093-23.329-188.98-.751-.093 23.329Zm188.98.751c8.909.036 16.198-7.195 16.233-16.104l-23.33-.093a7.166 7.166 0 0 1 7.19-7.132l-.093 23.329Zm-205.085-16.984c-.035 8.909 7.195 16.198 16.105 16.233l.093-23.329a7.154 7.154 0 0 1 7.132 7.189l-23.33-.093Zm106.577-105.733a106.166 106.166 0 0 0-106.577 105.733l23.33.093a82.834 82.834 0 0 1 83.154-82.496l.093-23.33Zm8.916 23.366a82.829 82.829 0 0 1 82.495 83.154l23.33.093a106.166 106.166 0 0 0-105.733-106.577l-.092 23.33Z" fill="#fff"/><path stroke="#fff" stroke-width="10" d="M363-1v144"/><defs><linearGradient id="a" x1="336.5" y1="359" x2="336.5" y2="799" gradientUnits="userSpaceOnUse"><stop stop-color="#F9D423"/><stop offset=".25" stop-color="#EAC721" stop-opacity=".79"/><stop offset="1" stop-color="#937D15" stop-opacity="0"/></linearGradient></defs></svg>