<svg width="673" height="799" viewBox="0 0 673 799" fill="none" xmlns="http://www.w3.org/2000/svg">
<path d="M284.5 359H438L672.5 799H0.5L284.5 359Z" fill="url(#paint0_linear_14_46)"/>
<path d="M395.675 251.325L395.628 263.006L407.293 263.036L407.356 251.371L395.675 251.325ZM329.679 251.063L317.997 251.016L317.968 262.681L329.632 262.744L329.679 251.063ZM384.256 185.282L383.994 251.279L407.356 251.371L407.619 185.375L384.256 185.282ZM395.721 239.644L329.725 239.381L329.632 262.744L395.628 263.006L395.721 239.644ZM341.36 251.109L341.622 185.113L318.26 185.02L317.997 251.016L341.36 251.109ZM363.024 163.881C368.677 163.906 374.088 166.174 378.069 170.187C382.051 174.2 384.276 179.63 384.256 185.282L407.619 185.375C407.644 179.507 406.514 173.692 404.291 168.261C402.068 162.83 398.797 157.89 394.664 153.724C390.531 149.559 385.617 146.248 380.204 143.982C374.791 141.716 368.985 140.539 363.117 140.518L363.024 163.881ZM363.117 140.518C357.249 140.492 351.433 141.623 346.002 143.846C340.571 146.069 335.632 149.34 331.466 153.473C327.3 157.606 323.99 162.519 321.724 167.932C319.458 173.345 318.281 179.152 318.26 185.02L341.622 185.113C341.647 179.46 343.916 174.049 347.929 170.067C351.942 166.086 357.371 163.861 363.024 163.881L363.117 140.518ZM367.227 239.547L358.219 239.511L358.126 262.841L367.135 262.877L367.227 239.547ZM267.747 361.477L456.727 362.228L456.82 338.899L267.84 338.148L267.747 361.477ZM456.727 362.228C465.636 362.264 472.925 355.033 472.96 346.124L449.63 346.031C449.639 344.132 450.401 342.314 451.749 340.977C453.097 339.639 454.921 338.892 456.82 338.899L456.727 362.228ZM251.642 345.244C251.607 354.153 258.837 361.442 267.747 361.477L267.84 338.148C271.799 338.163 274.988 341.377 274.972 345.337L251.642 345.244ZM358.219 239.511C330.066 239.402 303.022 250.48 283.036 270.308C263.049 290.136 251.757 317.091 251.642 345.244L274.972 345.337C275.061 323.371 283.872 302.34 299.466 286.869C315.06 271.399 336.16 262.755 358.126 262.841L358.219 239.511ZM367.135 262.877C389.101 262.966 410.132 271.776 425.602 287.37C441.073 302.965 449.716 324.065 449.63 346.031L472.96 346.124C473.069 317.971 461.991 290.927 442.163 270.941C422.335 250.954 395.38 239.662 367.227 239.547L367.135 262.877Z" fill="white"/>
<line x1="363" y1="-1" x2="363" y2="143" stroke="white" stroke-width="10"/>
<defs>
<linearGradient id="paint0_linear_14_46" x1="336.5" y1="359" x2="336.5" y2="799" gradientUnits="userSpaceOnUse">
<stop stop-color="#F9D423"/>
<stop offset="0.25" stop-color="#EAC721" stop-opacity="0.79"/>
<stop offset="1" stop-color="#937D15" stop-opacity="0"/>
</linearGradient>
</defs>
</svg>
